<svg width="737" height="78" viewBox="0 0 737 78" fill="none" xmlns="http://www.w3.org/2000/svg">
<g clip-path="url(#clip0_1_19)">
<path d="M154.131 38.0912C154.131 47.9529 148.889 58.849 140.165 58.849C134.231 58.849 129.974 55.1534 129.282 49.2785C126.514 55.1534 121.061 58.849 114.529 58.849C104.233 58.849 96.9141 51.4577 96.9141 40.0796C96.9141 28.7014 104.254 21.3102 114.529 21.3102C121.061 21.3102 126.514 25.1062 129.282 31.0715L131.159 22.1638H131.851V46.9085C131.851 55.063 135.72 57.905 140.763 57.905C147.893 57.905 153.135 47.7621 153.135 38.0912C153.135 20.5469 138.456 3.94671 115.221 3.94671C93.2024 3.94671 78.303 19.8741 78.303 39.0251C78.303 60.265 94.2404 74.8668 116.909 74.8668C123.441 74.8668 128.684 72.9687 131.851 70.6991V72.0247C128.988 73.8223 122.749 75.8107 116.909 75.8107C93.0556 75.8107 77.3174 60.6466 77.3174 39.0251C77.3069 18.7493 93.2443 3.01276 115.211 3.01276C137.355 3.01276 154.131 18.4681 154.131 38.0912ZM129.187 40.0997C129.187 29.1935 122.55 22.2742 114.508 22.2742C106.298 22.2742 99.7661 28.9123 99.7661 40.0997C99.7661 51.287 106.298 57.9251 114.508 57.9251C122.54 57.905 129.177 51.0761 129.177 40.0796L129.187 40.0997Z" fill="black"/>
<path d="M179.693 5.16637V74.9846H177.512V5.16637H179.693ZM222.667 76.0755C218.099 76.0755 214.099 74.8823 210.667 72.4959C207.258 70.1096 204.61 66.8709 202.724 62.78C200.837 58.6891 199.894 54.0755 199.894 48.9391C199.894 43.8027 200.837 39.1891 202.724 35.0982C204.633 31.0073 207.224 27.7686 210.496 25.3823C213.769 22.9959 217.462 21.8027 221.576 21.8027C224.621 21.8027 227.44 22.4505 230.03 23.7459C232.644 25.0414 234.917 26.8368 236.849 29.1323C238.78 31.4277 240.28 34.0755 241.349 37.0755C242.44 40.0527 242.985 43.2346 242.985 46.6209V48.8027H200.985V46.6209H240.803C240.803 42.4164 239.94 38.6096 238.212 35.2005C236.485 31.7686 234.167 29.0414 231.258 27.0186C228.349 24.9959 225.121 23.9846 221.576 23.9846C217.985 23.9846 214.735 25.0527 211.826 27.1891C208.917 29.3255 206.587 32.2346 204.837 35.9164C203.087 39.5982 202.167 43.7573 202.076 48.3936V48.6664C202.076 53.2346 202.871 57.4391 204.462 61.28C206.076 65.0982 208.417 68.155 211.485 70.4505C214.553 72.7459 218.28 73.8936 222.667 73.8936C225.894 73.8936 228.599 73.3255 230.78 72.1891C232.985 71.0527 234.746 69.7459 236.065 68.2686C237.405 66.7914 238.394 65.53 239.03 64.4846L240.803 65.7118C240.03 67.03 238.871 68.4959 237.326 70.1096C235.78 71.7232 233.803 73.1209 231.394 74.3027C228.985 75.4846 226.076 76.0755 222.667 76.0755ZM294.6 33.6664L292.418 34.2118C291.714 31.9391 290.725 30.0527 289.453 28.5527C288.203 27.03 286.668 25.8937 284.85 25.1437C283.032 24.3709 280.918 23.9846 278.509 23.9846C274.328 23.9846 270.941 25.0527 268.35 27.1891C265.759 29.3027 264.464 32.0982 264.464 35.5755C264.464 38.3255 265.339 40.6323 267.089 42.4959C268.862 44.3596 271.532 45.7346 275.1 46.6209L283.282 48.6664C287.123 49.6209 290.032 51.2346 292.009 53.5073C294.009 55.78 295.009 58.53 295.009 61.7573C295.009 64.5982 294.259 67.0982 292.759 69.2573C291.282 71.4164 289.237 73.0982 286.623 74.3027C284.009 75.4846 280.987 76.0755 277.555 76.0755C272.896 76.0755 269.089 74.9391 266.134 72.6664C263.18 70.3936 261.259 67.1664 260.373 62.9846L262.555 62.4391C263.328 66.1436 264.975 68.9846 267.498 70.9618C270.043 72.9164 273.396 73.8936 277.555 73.8936C282.1 73.8936 285.782 72.78 288.6 70.5527C291.418 68.3255 292.828 65.3936 292.828 61.7573C292.828 59.0527 291.987 56.7686 290.305 54.905C288.623 53.0414 286.1 51.6891 282.737 50.8482L274.555 48.8027C270.532 47.8027 267.475 46.1664 265.384 43.8936C263.316 41.6209 262.282 38.8482 262.282 35.5755C262.282 32.8255 262.964 30.4277 264.328 28.3823C265.714 26.3141 267.623 24.7005 270.055 23.5414C272.509 22.3823 275.328 21.8027 278.509 21.8027C282.555 21.8027 285.93 22.8027 288.634 24.8027C291.339 26.78 293.328 29.7346 294.6 33.6664ZM347.18 74.9846V22.6209H349.362V30.3936H349.635C350.59 27.8482 352.294 25.8027 354.749 24.2573C357.226 22.7118 360.203 21.9391 363.68 21.9391C367.635 21.9391 370.783 22.9164 373.124 24.8709C375.487 26.8255 377.112 29.4391 377.999 32.7118H378.271C379.135 29.4391 380.885 26.8255 383.521 24.8709C386.158 22.9164 389.453 21.9391 393.408 21.9391C398.658 21.9391 402.533 23.6096 405.033 26.9505C407.555 30.2686 408.817 34.5527 408.817 39.8027V74.9846H406.635V39.8027C406.635 35.1664 405.59 31.3936 403.499 28.4846C401.408 25.5755 398.044 24.1209 393.408 24.1209C388.771 24.1209 385.226 25.5982 382.771 28.5527C380.317 31.4846 379.09 35.2346 379.09 39.8027V74.9846H376.908V39.8027C376.908 35.1664 375.862 31.3936 373.771 28.4846C371.68 25.5755 368.317 24.1209 363.68 24.1209C360.59 24.1209 357.976 24.7914 355.84 26.1323C353.726 27.4732 352.112 29.3255 350.999 31.6891C349.908 34.0527 349.362 36.7573 349.362 39.8027V74.9846H347.18ZM451.773 76.0755C447.205 76.0755 443.205 74.8823 439.773 72.4959C436.364 70.1096 433.716 66.8709 431.83 62.78C429.943 58.6891 429 54.0755 429 48.9391C429 43.8027 429.943 39.1891 431.83 35.0982C433.739 31.0073 436.33 27.7686 439.603 25.3823C442.875 22.9959 446.568 21.8027 450.682 21.8027C453.728 21.8027 456.546 22.4505 459.137 23.7459C461.75 25.0414 464.023 26.8368 465.955 29.1323C467.887 31.4277 469.387 34.0755 470.455 37.0755C471.546 40.0527 472.091 43.2346 472.091 46.6209V48.8027H430.091V46.6209H469.909C469.909 42.4164 469.046 38.6096 467.318 35.2005C465.591 31.7686 463.273 29.0414 460.364 27.0186C457.455 24.9959 454.228 23.9846 450.682 23.9846C447.091 23.9846 443.841 25.0527 440.932 27.1891C438.023 29.3255 435.693 32.2346 433.943 35.9164C432.193 39.5982 431.273 43.7573 431.182 48.3936V48.6664C431.182 53.2346 431.978 57.4391 433.568 61.28C435.182 65.0982 437.523 68.155 440.591 70.4505C443.659 72.7459 447.387 73.8936 451.773 73.8936C455 73.8936 457.705 73.3255 459.887 72.1891C462.091 71.0527 463.853 69.7459 465.171 68.2686C466.512 66.7914 467.5 65.53 468.137 64.4846L469.909 65.7118C469.137 67.03 467.978 68.4959 466.432 70.1096C464.887 71.7232 462.909 73.1209 460.5 74.3027C458.091 75.4846 455.182 76.0755 451.773 76.0755ZM526.161 57.8027V22.6209H528.343V74.9846H526.161V66.6664H525.888C524.661 69.3936 522.638 71.5755 519.82 73.2118C517.025 74.8482 513.82 75.6664 510.207 75.6664C506.707 75.6664 503.616 74.905 500.934 73.3823C498.252 71.8596 496.15 69.7573 494.627 67.0755C493.104 64.3936 492.343 61.3027 492.343 57.8027V22.6209H494.525V57.8027C494.525 62.4391 495.979 66.2118 498.888 69.1209C501.797 72.03 505.57 73.4846 510.207 73.4846C513.297 73.4846 516.036 72.8141 518.422 71.4732C520.832 70.1323 522.718 68.28 524.082 65.9164C525.468 63.5527 526.161 60.8482 526.161 57.8027ZM553.342 74.9846V5.16637H555.524V35.9846H555.796C556.705 33.0755 558.024 30.5641 559.751 28.4505C561.478 26.3141 563.512 24.6777 565.853 23.5414C568.194 22.3823 570.751 21.8027 573.524 21.8027C577.614 21.8027 581.171 22.9959 584.194 25.3823C587.217 27.7686 589.558 31.0073 591.217 35.0982C592.876 39.1891 593.705 43.8027 593.705 48.9391C593.705 54.0982 592.876 58.7232 591.217 62.8141C589.58 66.905 587.251 70.1436 584.228 72.53C581.228 74.8936 577.66 76.0755 573.524 76.0755C570.728 76.0755 568.16 75.4959 565.819 74.3368C563.501 73.1777 561.489 71.5414 559.785 69.4277C558.08 67.2914 556.751 64.78 555.796 61.8936H555.524V74.9846H553.342ZM555.524 48.9391C555.524 53.6664 556.251 57.9164 557.705 61.6891C559.16 65.4391 561.228 68.4164 563.91 70.6209C566.614 72.8027 569.819 73.8936 573.524 73.8936C577.228 73.8936 580.421 72.8027 583.103 70.6209C585.808 68.4164 587.887 65.4391 589.342 61.6891C590.796 57.9164 591.524 53.6664 591.524 48.9391C591.524 44.2118 590.785 39.9732 589.308 36.2232C587.853 32.4505 585.774 29.4732 583.069 27.2914C580.387 25.0868 577.205 23.9846 573.524 23.9846C569.842 23.9846 566.649 25.0868 563.944 27.2914C561.262 29.4732 559.183 32.4505 557.705 36.2232C556.251 39.9732 555.524 44.2118 555.524 48.9391ZM616.062 5.16637V74.9846H613.88V5.16637H616.062ZM659.036 76.0755C654.467 76.0755 650.467 74.8823 647.036 72.4959C643.627 70.1096 640.979 66.8709 639.092 62.78C637.206 58.6891 636.263 54.0755 636.263 48.9391C636.263 43.8027 637.206 39.1891 639.092 35.0982C641.002 31.0073 643.592 27.7686 646.865 25.3823C650.138 22.9959 653.831 21.8027 657.945 21.8027C660.99 21.8027 663.808 22.4505 666.399 23.7459C669.013 25.0414 671.286 26.8368 673.217 29.1323C675.149 31.4277 676.649 34.0755 677.717 37.0755C678.808 40.0527 679.354 43.2346 679.354 46.6209V48.8027H637.354V46.6209H677.172C677.172 42.4164 676.308 38.6096 674.581 35.2005C672.854 31.7686 670.536 29.0414 667.627 27.0186C664.717 24.9959 661.49 23.9846 657.945 23.9846C654.354 23.9846 651.104 25.0527 648.195 27.1891C645.286 29.3255 642.956 32.2346 641.206 35.9164C639.456 39.5982 638.536 43.7573 638.445 48.3936V48.6664C638.445 53.2346 639.24 57.4391 640.831 61.28C642.445 65.0982 644.786 68.155 647.854 70.4505C650.922 72.7459 654.649 73.8936 659.036 73.8936C662.263 73.8936 664.967 73.3255 667.149 72.1891C669.354 71.0527 671.115 69.7459 672.433 68.2686C673.774 66.7914 674.763 65.53 675.399 64.4846L677.172 65.7118C676.399 67.03 675.24 68.4959 673.695 70.1096C672.149 71.7232 670.172 73.1209 667.763 74.3027C665.354 75.4846 662.445 76.0755 659.036 76.0755ZM730.969 33.6664L728.787 34.2118C728.083 31.9391 727.094 30.0527 725.821 28.5527C724.571 27.03 723.037 25.8937 721.219 25.1437C719.401 24.3709 717.287 23.9846 714.878 23.9846C710.696 23.9846 707.31 25.0527 704.719 27.1891C702.128 29.3027 700.833 32.0982 700.833 35.5755C700.833 38.3255 701.708 40.6323 703.458 42.4959C705.23 44.3596 707.901 45.7346 711.469 46.6209L719.651 48.6664C723.492 49.6209 726.401 51.2346 728.378 53.5073C730.378 55.78 731.378 58.53 731.378 61.7573C731.378 64.5982 730.628 67.0982 729.128 69.2573C727.651 71.4164 725.605 73.0982 722.992 74.3027C720.378 75.4846 717.355 76.0755 713.924 76.0755C709.265 76.0755 705.458 74.9391 702.503 72.6664C699.549 70.3936 697.628 67.1664 696.742 62.9846L698.924 62.4391C699.696 66.1436 701.344 68.9846 703.867 70.9618C706.412 72.9164 709.765 73.8936 713.924 73.8936C718.469 73.8936 722.151 72.78 724.969 70.5527C727.787 68.3255 729.196 65.3936 729.196 61.7573C729.196 59.0527 728.355 56.7686 726.674 54.905C724.992 53.0414 722.469 51.6891 719.105 50.8482L710.924 48.8027C706.901 47.8027 703.844 46.1664 701.753 43.8936C699.685 41.6209 698.651 38.8482 698.651 35.5755C698.651 32.8255 699.333 30.4277 700.696 28.3823C702.083 26.3141 703.992 24.7005 706.424 23.5414C708.878 22.3823 711.696 21.8027 714.878 21.8027C718.924 21.8027 722.299 22.8027 725.003 24.8027C727.708 26.78 729.696 29.7346 730.969 33.6664Z" fill="black"/>
</g>
<defs>
<clipPath id="clip0_1_19">
<rect width="737" height="78" fill="white"/>
</clipPath>
</defs>
</svg>
