<svg xmlns="http://www.w3.org/2000/svg" viewBox="0 0 323.2 95.5"><g id="Layer_2" data-name="Layer 2"><g id="Layer_1-2" data-name="Layer 1"><path d="M15.7,46.4,11.9,62H0L16.2.9H30.9L46.7,62H34.5l-4-15.6Zm13.4-9L25.9,23.8C25,20,24.1,14.9,23.3,11h-.2c-.8,3.9-1.7,9.2-2.5,12.8L17.3,37.4Z"/><path d="M50.7.9H81.9v10H62.5v16H80.6v9.7H62.5V62H50.7Z"/><path d="M132.3,38.8c-.3-6.9-.7-15.5-.6-23.2h-.3c-1.6,7.1-3.6,15.1-5.5,21.4L119,61h-8.7L104,37.4c-1.7-6.5-3.6-14.5-4.9-21.8h-.2c-.2,7.5-.6,16.2-1,23.4L96.7,62H86.1L90.2.9h14.2l6.1,22.7c1.9,7.5,3.6,14.5,4.9,21.5h.2c1.3-6.9,3-14.1,5-21.5L126.9.9H141l3.5,61.2H133.4Z"/><path d="M193.6,71.9A197.38,197.38,0,0,1,173.9,64a10.42,10.42,0,0,0-3.4-1.1c-12.8-.4-22.7-11.2-22.7-31.2C147.8,13.8,157,0,172.5,0c16.1,0,23.4,14.6,23.4,30.6,0,14.9-5,24.4-12.2,27.8v.4c4.4,1.6,9.3,2.9,13.6,4ZM172,53.1c7.6,0,11.5-9.5,11.5-21.9,0-11.4-3.6-21.3-11.5-21.3s-11.9,9.9-11.8,21.6c-.1,12,3.9,21.6,11.8,21.6Z"/><path d="M215.8,10.3l-1,2.6h-2.1L217.4.8h2.4l4.5,12.1h-2.1l-1-2.6Zm2.7-7.4-2.2,5.9h4.3Z"/><path d="M225.1,10.5a6.3,6.3,0,0,0,3.5,1.1c1.1,0,1.9-.3,1.9-1.1,0-1.6-5.3-.6-5.3-4,0-1.8,1.5-2.6,3.5-2.6a6.53,6.53,0,0,1,3.6,1V6.5a6,6,0,0,0-3.4-1.1c-1,0-1.6.2-1.6,1,0,1.6,5.3.6,5.3,3.9,0,1.9-1.5,2.8-3.8,2.8a6.3,6.3,0,0,1-3.6-1V10.5Z"/><path d="M233.7,10.5a6.3,6.3,0,0,0,3.5,1.1c1.1,0,1.9-.3,1.9-1.1,0-1.6-5.3-.6-5.3-4,0-1.8,1.5-2.6,3.5-2.6a6.53,6.53,0,0,1,3.6,1V6.5a6,6,0,0,0-3.4-1.1c-1,0-1.6.2-1.6,1,0,1.6,5.3.6,5.3,3.9,0,1.9-1.5,2.8-3.8,2.8a6.3,6.3,0,0,1-3.6-1V10.5Z"/><path d="M251.2,8.6a4.5,4.5,0,1,1-9,0A4.27,4.27,0,0,1,246.7,4C249.7,3.9,251.2,6.1,251.2,8.6Zm-2,0c0-1.5-.7-3.1-2.5-3.1s-2.4,1.6-2.4,3.1.7,3.1,2.4,3.1S249.2,10.1,249.2,8.6Z"/><path d="M260.1,12.1a4.63,4.63,0,0,1-3.2,1.1,4.26,4.26,0,0,1-4.6-4.6A4.26,4.26,0,0,1,256.9,4a4.63,4.63,0,0,1,3.2,1.1V6.8a3.93,3.93,0,0,0-2.9-1.3c-1.6,0-2.8,1.1-2.8,3.1s1.2,3.1,2.8,3.1a3.93,3.93,0,0,0,2.9-1.3Z"/><path d="M262.3,3.2V1.3h1.9V3.2Zm0,9.8V4.1h1.9V13Z"/><path d="M266.1,5.2A5.76,5.76,0,0,1,269.9,4c2.7,0,4,1.3,4,3.3V13h-2V11.5a3.37,3.37,0,0,1-3.1,1.6c-1.9,0-3.1-1.2-3.1-2.6,0-2.1,1.6-3,4.4-3h1.8V7.1c0-.9-.6-1.6-2.2-1.6a5.33,5.33,0,0,0-3.6,1.3Zm4.1,3.7c-2,0-2.5.6-2.5,1.4s.7,1.3,1.7,1.3a2.33,2.33,0,0,0,2.5-2.1V8.9Z"/><path d="M276.3,4.1V2h2V4.1h2.1V5.5h-2.1v4.9c0,.7.1,1.2,1,1.2a4.25,4.25,0,0,0,1.1-.2v1.4a5.66,5.66,0,0,1-1.8.3c-1.9,0-2.3-1-2.3-2.6V5.6H275V4.1Z"/><path d="M281.6,3.2V1.3h1.9V3.2Zm0,9.8V4.1h1.9V13Z"/><path d="M294.2,8.6a4.5,4.5,0,1,1-9,0A4.27,4.27,0,0,1,289.7,4C292.6,3.9,294.2,6.1,294.2,8.6Zm-2.1,0c0-1.5-.7-3.1-2.5-3.1s-2.4,1.6-2.4,3.1.7,3.1,2.4,3.1,2.5-1.6,2.5-3.1Z"/><path d="M297.7,6.2a3.43,3.43,0,0,1,3.2-2.3c2,0,2.9,1.3,2.9,3.4V13h-2V7.6c0-1.2-.4-2-1.7-2s-2.5,1.5-2.5,5.1V13h-2V4.1h2V6.2Z"/><path d="M219.4,27.9a3,3,0,0,1-2.9,1.6c-2.4,0-3.8-1.8-3.8-4.6s1.4-4.6,3.8-4.6a3.05,3.05,0,0,1,2.9,1.6V17.3h1.9V29.4h-2V27.9ZM217,21.8c-1.7,0-2.3,1.4-2.3,3.1s.7,3.1,2.3,3.1c1.3,0,2.4-1,2.4-3.1S218.3,21.8,217,21.8Z"/><path d="M225,25.3a2.5,2.5,0,0,0,2.8,2.7,4.52,4.52,0,0,0,3.5-1.3v1.6a5.76,5.76,0,0,1-3.8,1.2,4.26,4.26,0,0,1-4.6-4.6,4.28,4.28,0,0,1,4.5-4.6c3.3,0,4.2,2.1,4.2,4.4v.6Zm4.7-1.3c0-1.1-.4-2.2-2.3-2.2a2.24,2.24,0,0,0-2.4,2.1v.2h4.7Z"/><path d="M232.7,26.9a6.3,6.3,0,0,0,3.5,1.1c1.1,0,1.9-.3,1.9-1.1,0-1.6-5.3-.6-5.3-4,0-1.8,1.5-2.6,3.5-2.6a6.53,6.53,0,0,1,3.6,1v1.6a6,6,0,0,0-3.4-1.1c-1,0-1.6.2-1.6,1,0,1.6,5.3.6,5.3,3.9,0,1.9-1.5,2.8-3.8,2.8a6.86,6.86,0,0,1-3.7-1Z"/><path d="M246.2,20.5v-.7c0-1.9.9-2.6,2.6-2.6a5.9,5.9,0,0,1,1.4.2v1.5a4.25,4.25,0,0,0-1.1-.2c-.7,0-1,.2-1,1.2v.7h2.1V22h-2.1v7.4h-1.9V22h-1.3V20.6h1.3Z"/><path d="M251.3,21.5a5.76,5.76,0,0,1,3.8-1.2c2.6,0,4,1.3,4,3.3v5.8h-1.9V27.9a3.43,3.43,0,0,1-3.2,1.6c-1.9,0-3.1-1.2-3.1-2.6,0-2.1,1.6-3,4.4-3h1.8v-.5c0-.9-.6-1.6-2.2-1.6a5.33,5.33,0,0,0-3.6,1.3Zm4.1,3.8c-2,0-2.5.6-2.5,1.4s.7,1.3,1.7,1.3a2.34,2.34,0,0,0,2.5-2.3v-.4Z"/><path d="M261,29.3v-12h1.9v4.6a3,3,0,0,1,2.9-1.6c2.4,0,3.8,1.8,3.8,4.6s-1.4,4.6-3.8,4.6a3.05,3.05,0,0,1-2.9-1.6v1.5Zm4.4-1.3c1.6,0,2.3-1.4,2.3-3.1s-.7-3.1-2.3-3.1c-1.3,0-2.4,1-2.4,3.1s1,3.1,2.4,3.1Z"/><path d="M273.3,23.1c.6-2,1.8-2.8,3.2-2.8v1.9c-1.8,0-3.2,1-3.2,4.7v2.4h-2V20.5h2Z"/><path d="M277.7,19.6V17.7h2v1.9Zm0,9.7V20.5h2v8.8Z"/><path d="M289,28.4a4.63,4.63,0,0,1-3.2,1.1,4.26,4.26,0,0,1-4.6-4.6,4.26,4.26,0,0,1,4.6-4.6,4.63,4.63,0,0,1,3.2,1.1V23a3.93,3.93,0,0,0-2.9-1.3c-1.6,0-2.8,1.1-2.8,3.1s1.2,3.1,2.8,3.1a3.93,3.93,0,0,0,2.9-1.3Z"/><path d="M290.6,21.5a5.76,5.76,0,0,1,3.8-1.2c2.6,0,4,1.3,4,3.3v5.8h-1.9V27.9a3.43,3.43,0,0,1-3.2,1.6c-1.9,0-3.1-1.2-3.1-2.6,0-2.1,1.6-3,4.4-3h1.8v-.5c0-.9-.6-1.6-2.2-1.6a5.88,5.88,0,0,0-3.6,1.3Zm4.1,3.8c-2,0-2.5.6-2.5,1.4s.7,1.3,1.7,1.3a2.34,2.34,0,0,0,2.5-2.3v-.4Z"/><path d="M302.2,22.6a3.43,3.43,0,0,1,3.2-2.3c2,0,2.9,1.3,2.9,3.4v5.7h-2V24c0-1.2-.4-2-1.7-2s-2.5,1.5-2.5,5.2v2.3h-1.9V20.7h1.9v1.9Z"/><path d="M310.8,20.5V18.3h2v2.2h2.1V22h-2.1v4.9c0,.7.1,1.2,1,1.2a4.25,4.25,0,0,0,1.1-.2v1.4a5.66,5.66,0,0,1-1.8.3c-1.9,0-2.3-1-2.3-2.6V22h-1.3V20.6h1.3Z"/><path d="M315.7,26.9a6.3,6.3,0,0,0,3.5,1.1c1.1,0,1.9-.3,1.9-1.1,0-1.6-5.3-.6-5.3-4,0-1.8,1.5-2.6,3.5-2.6a6.53,6.53,0,0,1,3.6,1v1.6a6,6,0,0,0-3.4-1.1c-1,0-1.6.2-1.6,1,0,1.6,5.3.6,5.3,3.9,0,1.9-1.5,2.8-3.8,2.8a6.86,6.86,0,0,1-3.7-1Z"/><path d="M219.4,44.2a3,3,0,0,1-2.9,1.6c-2.4,0-3.8-1.8-3.8-4.6s1.4-4.6,3.8-4.6a3.05,3.05,0,0,1,2.9,1.6V33.6h1.9V45.7h-2V44.2Zm-2.4-6c-1.7,0-2.3,1.4-2.3,3.1s.7,3.1,2.3,3.1c1.3,0,2.4-1,2.4-3.1S218.3,38.2,217,38.2Z"/><path d="M225,41.7a2.5,2.5,0,0,0,2.8,2.7,4.91,4.91,0,0,0,3.5-1.3v1.6a5.76,5.76,0,0,1-3.8,1.2,4.26,4.26,0,0,1-4.6-4.6,4.28,4.28,0,0,1,4.5-4.6c3.3,0,4.2,2.1,4.2,4.4v.6Zm4.7-1.3c0-1.1-.4-2.2-2.3-2.2a2.24,2.24,0,0,0-2.4,2.1v.2h4.7Z"/><path d="M239.5,38.9a3.43,3.43,0,0,1,3.2-2.3,2.48,2.48,0,0,1,2.7,2.3V39a3.67,3.67,0,0,1,3.4-2.4c2,0,2.9,1.3,2.9,3.4v5.6h-1.9V40.2c0-1.2-.4-2-1.7-2s-2.5,1.5-2.5,5.2v2.3h-2V40.3c0-1.2-.4-2-1.7-2s-2.5,1.5-2.5,5.2v2.3h-1.9V37h1.9v1.9Z"/><path d="M255.3,41.7a2.5,2.5,0,0,0,2.8,2.7,4.91,4.91,0,0,0,3.5-1.3v1.6a5.76,5.76,0,0,1-3.8,1.2,4.26,4.26,0,0,1-4.6-4.6,4.28,4.28,0,0,1,4.5-4.6c3.3,0,4.2,2.1,4.2,4.4v.6Zm4.7-1.3c0-1.1-.4-2.2-2.3-2.2a2.24,2.24,0,0,0-2.4,2.1v.2H260Z"/><path d="M269.4,43.6a3.43,3.43,0,0,1-3.2,2.3c-2.1,0-2.9-1.3-2.9-3.4V36.8h1.9v5.4c0,1.2.4,2,1.7,2s2.5-1.5,2.5-5.1V36.8h2v8.8h-2Z"/><path d="M273.4,45.7v-12h1.9v4.6a3,3,0,0,1,2.9-1.6c2.4,0,3.8,1.8,3.8,4.6s-1.4,4.6-3.8,4.6a3.05,3.05,0,0,1-2.9-1.6v1.4Zm4.3-1.3c1.7,0,2.3-1.4,2.3-3.1s-.7-3.1-2.3-3.1c-1.3,0-2.4,1-2.4,3.1s1.1,3.1,2.4,3.1Z"/><path d="M286.9,45.7a5,5,0,0,1-1.2.2c-1.5,0-2.1-.7-2.1-2.4V33.7h2v9.6c0,.7.1,1.1.7,1.1a1.27,1.27,0,0,0,.6-.1Z"/><path d="M289.7,41.7a2.5,2.5,0,0,0,2.8,2.7,4.91,4.91,0,0,0,3.5-1.3v1.6a5.76,5.76,0,0,1-3.8,1.2,4.26,4.26,0,0,1-4.6-4.6,4.28,4.28,0,0,1,4.5-4.6c3.3,0,4.2,2.1,4.2,4.4v.6Zm4.7-1.3a1.94,1.94,0,0,0-2.2-2.2,2.24,2.24,0,0,0-2.4,2.1v.2h4.6Z"/><path d="M297.4,43.3a6.3,6.3,0,0,0,3.5,1.1c1.1,0,1.9-.3,1.9-1.1,0-1.6-5.3-.6-5.3-4,0-1.8,1.5-2.6,3.5-2.6a6.53,6.53,0,0,1,3.6,1v1.6a6,6,0,0,0-3.4-1.1c-1,0-1.6.2-1.6,1,0,1.6,5.3.6,5.3,3.9,0,1.9-1.5,2.8-3.8,2.8a6.86,6.86,0,0,1-3.7-1Z"/><path d="M219.4,60.6a3.24,3.24,0,0,1-2.9,1.7c-2.4,0-3.8-1.8-3.8-4.6s1.4-4.6,3.8-4.6a3,3,0,0,1,2.9,1.7V50h1.9V62h-2V60.6ZM217,54.5c-1.7,0-2.3,1.4-2.3,3.1s.7,3.1,2.3,3.1c1.3,0,2.4-1,2.4-3.1S218.3,54.5,217,54.5Z"/><path d="M229.4,59.9a3.43,3.43,0,0,1-3.2,2.3c-2.1,0-2.9-1.3-2.9-3.4V53.1h1.9v5.4c0,1.2.4,2,1.7,2s2.5-1.5,2.5-5.2V53h1.9v9h-1.9Z"/><path d="M256.6,59.9a3.43,3.43,0,0,1-3.2,2.3c-2.1,0-2.9-1.3-2.9-3.4V53.1h1.9v5.4c0,1.2.4,2,1.7,2s2.5-1.5,2.5-5.2V53h1.9v9h-1.9Z"/><path d="M262.1,58a2.5,2.5,0,0,0,2.8,2.7,4.91,4.91,0,0,0,3.5-1.3V61a5.76,5.76,0,0,1-3.8,1.2,4.26,4.26,0,0,1-4.6-4.6,4.28,4.28,0,0,1,4.5-4.6c3.3,0,4.2,2.1,4.2,4.4V58Zm4.7-1.3c0-1.1-.4-2.2-2.3-2.2a2.31,2.31,0,0,0-2.4,2.1v.2Zm-.4-7.4.7,1v.6l-2.5,1.4-.6-.8Z"/><path d="M270.3,62V50h1.9v4.6a3,3,0,0,1,2.9-1.6c2.4,0,3.8,1.8,3.8,4.6s-1.4,4.6-3.8,4.6a3.05,3.05,0,0,1-2.9-1.6v1.5Zm4.3-1.3c1.6,0,2.3-1.4,2.3-3.1s-.7-3.1-2.3-3.1c-1.3,0-2.4,1-2.4,3.1s1,3.1,2.4,3.1Z"/><path d="M282.1,58a2.5,2.5,0,0,0,2.8,2.7,4.91,4.91,0,0,0,3.5-1.3V61a5.76,5.76,0,0,1-3.8,1.2,4.26,4.26,0,0,1-4.6-4.6,4.28,4.28,0,0,1,4.5-4.6c3.3,0,4.2,2.1,4.2,4.4V58Zm4.8-1.3c0-1.1-.4-2.2-2.3-2.2a2.24,2.24,0,0,0-2.4,2.1v.2h4.7Z"/><path d="M297.6,61.1a4.63,4.63,0,0,1-3.2,1.1,4.26,4.26,0,0,1-4.6-4.6,4.26,4.26,0,0,1,4.6-4.6,4.63,4.63,0,0,1,3.2,1.1v1.7a3.6,3.6,0,0,0-2.9-1.3c-1.6,0-2.8,1.1-2.8,3.1s1.2,3.1,2.8,3.1a3.93,3.93,0,0,0,2.9-1.3Z"/><path d="M248.9,56c0-3.4-2.1-6.2-6-6.2s-6,2.8-6,6.2c0,2.9,1.5,5.3,4.3,6,.1,0,.3.1.4.1,1,.3,4.1,2,5.3,2.4l.7-1.8c-.6-.2-1.6-.6-2.5-.9C247.6,61,248.9,58.8,248.9,56Zm-6,4.6c-2.6,0-3.9-1.9-3.9-4.5s1.3-4.5,3.9-4.5,3.9,1.9,3.9,4.5-1.3,4.5-3.9,4.5Z"/><path d="M55.7,83.1h3.4a4.8,4.8,0,0,1,0,9.6H55.7Zm3.4,8.2c2.1,0,3.1-1.3,3.1-3.4s-1-3.4-3.1-3.4H57.3v6.9h1.8Z"/><path d="M67.1,89.5a2,2,0,0,0,2.2,2.2,4.19,4.19,0,0,0,2.8-1V92a4.12,4.12,0,0,1-3,.9,3.42,3.42,0,0,1-3.7-3.7,3.53,3.53,0,0,1,3.1-3.7H69c2.6,0,3.3,1.7,3.3,3.5v.5Zm3.8-1.1a1.58,1.58,0,0,0-1.8-1.8,1.78,1.78,0,0,0-1.9,1.6v.1h3.7Z"/><path d="M74.3,95.3V85.6h1.5v1.2a2.38,2.38,0,0,1,2.3-1.3c1.9,0,3,1.4,3,3.7s-1.1,3.7-3,3.7a2.53,2.53,0,0,1-2.3-1.3v3.9H74.3Zm3.4-3.7c1.3,0,1.8-1.1,1.8-2.5s-.5-2.5-1.8-2.5c-1.1,0-1.9.8-1.9,2.5S76.6,91.6,77.7,91.6Z"/><path d="M87.9,91a2.67,2.67,0,0,1-2.5,1.8c-1.6,0-2.3-1.1-2.3-2.7V85.6h1.5v4.3c0,1,.3,1.6,1.3,1.6s2-1.2,2-4.1V85.6h1.5v7H87.9Z"/><path d="M91.6,84.9V83.4h1.5v1.5Zm0,7.8v-7h1.5v7.1Z"/><path d="M95.1,90.7a4.68,4.68,0,0,0,2.8.9c.9,0,1.5-.2,1.5-.9,0-1.3-4.2-.5-4.2-3.2,0-1.4,1.2-2,2.8-2a4.59,4.59,0,0,1,2.8.8v1.3a4.39,4.39,0,0,0-2.7-.9c-.8,0-1.3.2-1.3.8,0,1.3,4.2.5,4.2,3.1,0,1.5-1.2,2.2-3,2.2a5.1,5.1,0,0,1-2.9-.8Z"/><path d="M112.4,92.7h-5.7V91.4h2V84.7l-2,1.2V84.3l2-1.2h1.6v8.2h2v1.4Z"/><path d="M114.2,90.6a6.18,6.18,0,0,0,2.7.9c1.8,0,2.8-1.2,2.8-3.7a3.6,3.6,0,0,1-2.9,1.3,2.82,2.82,0,0,1-3.1-2.8,3.48,3.48,0,0,1,3.8-3.4c2.8,0,4,2,4,4.8,0,2.5-1.1,5.1-4.3,5.1a5.92,5.92,0,0,1-2.9-.7Zm3.1-6.3a1.89,1.89,0,0,0-2,1.8v.1A1.71,1.71,0,0,0,117,88h.2a2.77,2.77,0,0,0,2.3-1.3A2.09,2.09,0,0,0,117.3,84.3Z"/><path d="M129.4,90.5v2.2h-1.6V90.5h-5V89.2l4.9-6h1.7v6h1.4v1.3Zm-1.6-5.7-3.3,4.3h3.3Z"/><path d="M135.4,88.8c1.1-.8,2.3-1.8,2.3-2.9s-1-1.6-2.1-1.6a5.61,5.61,0,0,0-3.1.9V83.8a6.57,6.57,0,0,1,3.4-.8c1.9,0,3.4.8,3.4,2.8,0,1.6-1.3,2.7-2.6,3.7l-2.3,1.8h5.1v1.4h-7.2V91.2Z"/><rect x="50.7" y="73.2" width="93.8" height="0.5"/></g></g></svg>